<svg width="200" height="80" viewBox="0 0 200 80" fill="none" xmlns="http://www.w3.org/2000/svg">
  <!-- Flame -->
  <path d="M100 10 L105 25 L110 15 L112 30 L108 40 L100 45 L92 40 L88 30 L90 15 L95 25 Z" fill="#FF6600"/>
  <path d="M100 20 L103 30 L105 25 L106 35 L103 40 L100 42 L97 40 L94 35 L95 25 L97 30 Z" fill="#FF8833"/>
  <path d="M100 28 L102 35 L103 32 L103 38 L101 40 L100 41 L99 40 L97 38 L97 32 L98 35 Z" fill="#FFAA55"/>
  
  <!-- Text ABLAZE -->
  <text x="10" y="65" font-family="Arial, sans-serif" font-size="32" font-weight="bold" fill="#000000">ABLAZE</text>
</svg>
